<svg xmlns="http://www.w3.org/2000/svg" xmlns:xlink="http://www.w3.org/1999/xlink" viewBox="0 0 2884.55 2848.25"><defs><linearGradient id="linear-gradient" x1="3651.37" y1="4133.56" x2="1110.86" y2="978.4" gradientUnits="userSpaceOnUse"><stop offset="0" stop-color="#dae3fe"/><stop offset="1" stop-color="#e9effd"/></linearGradient><linearGradient id="linear-gradient-2" x1="2341.18" y1="440.35" x2="-687.7" y2="5935.61" gradientUnits="userSpaceOnUse"><stop offset="0" stop-color="#09005d"/><stop offset="1" stop-color="#1a0f91"/></linearGradient><linearGradient id="linear-gradient-3" x1="1432.55" y1="-1134.03" x2="1536.05" y2="-78.32" gradientUnits="userSpaceOnUse"><stop offset="0" stop-color="#4f52ff"/><stop offset="1" stop-color="#4042e2"/></linearGradient><linearGradient id="linear-gradient-4" x1="-5865.72" y1="3240.68" x2="-5491.11" y2="2276.31" gradientTransform="matrix(-1, 0, 0, 1, -3446.32, 0)" gradientUnits="userSpaceOnUse"><stop offset="0" stop-color="#febbba"/><stop offset="1" stop-color="#ff928e"/></linearGradient><linearGradient id="linear-gradient-5" x1="-5871.41" y1="6342.63" x2="-4633.28" y2="-8127.98" xlink:href="#linear-gradient-4"/><linearGradient id="linear-gradient-6" x1="-5826.9" y1="1715.06" x2="-5668.12" y2="1715.06" xlink:href="#linear-gradient-4"/><linearGradient id="linear-gradient-7" x1="-5317.01" y1="3268.03" x2="-4939.28" y2="2688.51" gradientTransform="matrix(-1, 0, 0, 1, -3211.16, 0)" xlink:href="#linear-gradient-3"/><linearGradient id="linear-gradient-8" x1="-5657.34" y1="3444.52" x2="-5238.22" y2="2720.11" gradientTransform="matrix(-1, 0, 0, 1, -3211.16, 0)" xlink:href="#linear-gradient-3"/><linearGradient id="linear-gradient-9" x1="-5653.49" y1="1360.77" x2="-5540.72" y2="1360.77" gradientTransform="matrix(-1, 0, 0, 1, -3859.04, -441.53)" xlink:href="#linear-gradient-4"/><linearGradient id="linear-gradient-10" x1="-4991.83" y1="1425.07" x2="-5967.19" y2="1983.83" xlink:href="#linear-gradient-4"/><linearGradient id="linear-gradient-11" x1="-4894.91" y1="1594.24" x2="-5870.27" y2="2153" xlink:href="#linear-gradient-4"/><linearGradient id="linear-gradient-12" x1="-5465.66" y1="1360.73" x2="-5684.81" y2="1040.27" xlink:href="#linear-gradient-4"/><linearGradient id="linear-gradient-13" x1="-5346.57" y1="1131.77" x2="-5657.03" y2="1535.37" gradientTransform="matrix(-1, 0, 0, 1, -3211.16, 0)" xlink:href="#linear-gradient-2"/></defs><g id="Illustration"><path d="M2960.3,2883.83C2901.52,2945,2845.9,2984.4,2802,3015.54,2285.38,3381.7,1674.15,3275,1544.24,3248.9c-191.83-38.49-562.63-112.89-830.71-424.33C307.94,2353.38,371.09,1611,685.69,1121c57.55-89.64,361.52-587.13,979.34-666.91,373.9-48.29,809.75,49.09,1125.38,310.32C3452.94,1312.78,3405.77,2420.54,2960.3,2883.83Z" transform="translate(-412.73 -441.53)" style="fill:url(#linear-gradient)"/><path d="M1867.5,3173.52s564.08-1425,1402.06-1580.66a23.46,23.46,0,0,1,27.68,24.23C3288.77,1792.86,3181.43,2723.12,1867.5,3173.52Z" transform="translate(-412.73 -441.53)" style="fill:#7d97f4"/><path d="M3119,1824c-42.78,61.07-87.62,120.52-133.08,179.53-11.35,14.77-23,29.33-34.41,44s-22.86,29.4-34.62,43.84l-35.13,43.42c-11.77,14.43-23.29,29.07-35.34,43.26-23.94,28.53-47.66,57.25-71.79,85.61l-73.15,84.45c-49.63,55.55-99.22,111.13-150.37,165.3l-38.07,40.9c-12.53,13.78-25.83,26.83-38.71,40.29L2396.64,2675l-79.7,78.37c-13.32,13-26.5,26.21-40.08,39l-41.11,37.88c-27.46,25.19-54.64,50.7-82.56,75.38l-84.91,72.75L2047,2996.37c-7.17,6-14.13,12.14-21.46,17.89l-43.86,34.67c-14.58,11.6-29.37,23-44,34.43s-29.39,22.89-44.18,34.21a2.59,2.59,0,0,1-3.26-4l.08-.06q21.2-18.2,42.58-36.11c14.24-12,28.38-24.06,42.72-35.9l42.89-35.66c14.14-12.08,27.84-24.66,41.87-36.86l84-73.41,82.26-75.34,41.16-37.64c6.88-6.25,13.43-12.85,20.17-19.25l20.18-19.26,80.7-77c52.49-52.7,105.86-104.59,156.55-159.08,25.59-27,51.5-53.72,76.22-81.53,24.94-27.61,50.1-55,74.86-82.8l73.4-84.09c24.22-28.25,48-56.85,72-85.26,12.1-14.13,23.67-28.71,35.48-43.09l35.28-43.25c11.8-14.38,23.15-29.13,34.75-43.67s23.16-29.13,34.56-43.84c45.41-58.93,90.19-118.45,132.83-179.35l0,0a2.58,2.58,0,0,1,4.23,3Z" transform="translate(-412.73 -441.53)" style="fill:#fff;opacity:0.62"/><g style="opacity:0.79"><path d="M1730.81,2356.27S2005,1097.92,2832.84,445.62a18.89,18.89,0,0,1,30.07,10.22C2915,666.55,3186.09,2010.51,1730.81,2356.27Z" transform="translate(-412.73 -441.53)" style="fill:#91b3fa"/><path d="M2745,808.64c-9.51,36.5-20.57,72.46-32.24,108.27s-24,71.37-37,106.69q-39.27,105.9-85.43,209.11c-7.62,17.22-15.65,34.24-23.47,51.38s-16.34,33.93-24.49,50.91-16.82,33.7-25.31,50.51l-12.83,25.17-13.29,24.93c-35.38,66.5-72.66,132.05-112.83,195.81s-82.18,126.39-127.36,186.73c-5.6,7.58-11.08,15.24-16.76,22.76l-17.34,22.32-17.33,22.32c-5.81,7.42-11.45,15-17.54,22.16l-36,43.59-9,10.86-9.37,10.59-18.72,21.17a2202.08,2202.08,0,0,1-330.81,306.86,2.24,2.24,0,0,1-2.77-3.53l0-.05,43.65-35.6,21.86-17.74,21.16-18.59,42.26-37.19,40.86-38.72c6.76-6.5,13.73-12.79,20.39-19.39l19.79-20c13.13-13.41,26.53-26.54,39.42-40.16,25.35-27.66,51.3-54.76,75.44-83.51l18.4-21.28,9.19-10.63,8.88-10.92,35.6-43.57c6-7.18,11.61-14.72,17.37-22.13l17.17-22.28,17.17-22.28c5.63-7.51,11.06-15.15,16.61-22.72,44.75-60.22,86.21-122.83,126.1-186.36,40.09-63.42,77.57-128.49,113-194.62l13.33-24.79,12.88-25c8.51-16.72,17.29-33.31,25.41-50.23,16.66-33.63,32.74-67.54,48.57-101.58q47.13-102.27,87.57-207.48,20.52-52.46,38.92-105.71,9.28-26.59,17.9-53.4c5.85-17.84,11.44-35.79,16.61-53.78v0a2.25,2.25,0,0,1,4.34,1.19Z" transform="translate(-412.73 -441.53)" style="fill:#fff;opacity:0.62"/></g><g style="opacity:0.76"><path d="M1300.61,2288.73S1193.67,1172.47,545.45,522.91a16.44,16.44,0,0,0-27.05,5.73C451.59,705.42,78.21,1839.3,1300.61,2288.73Z" transform="translate(-412.73 -441.53)" style="fill:#91b3fa"/><path d="M588.06,845.27c11.07,64.36,25.38,128.28,41.75,191.55q24.16,95,54.4,188.35c10.2,31,20.61,62,31.53,92.8,5.27,15.46,11.15,30.71,16.78,46l8.55,23,9,22.8c23.83,60.82,49.52,120.92,77.62,179.88,27.89,59,57.24,117.44,89.67,174.12,4,7.12,7.91,14.29,12,21.35l12.53,21,12.53,21c4.21,7,8.25,14.09,12.72,20.92l26.25,41.35,6.53,10.35,6.84,10.15,13.69,20.31c17.86,27.35,37.46,53.48,56.49,80,9.73,13.11,19.94,25.85,29.89,38.8l15,19.36c5.07,6.4,10.44,12.55,15.6,18.88l31.26,37.74,32.64,36.56,16.34,18.27,17,17.62,34,35.35,0,0a2.25,2.25,0,0,1-3.18,3.18,1907.59,1907.59,0,0,1-254.67-299.29l-14-20.24-7-10.12-6.7-10.32-26.64-41.41c-4.53-6.85-8.63-14-12.89-21l-12.68-21.1-12.69-21.1c-4.14-7.08-8.09-14.28-12.15-21.41-32.85-56.85-62.59-115.42-90.87-174.64s-53.58-119.85-77.28-181l-8.9-22.94-8.49-23.09c-5.6-15.42-11.43-30.76-16.65-46.31s-10.88-31-15.91-46.56-10.14-31.2-14.93-46.88c-38.54-125.37-70.56-252.91-89.45-382.81a2.25,2.25,0,0,1,4.44-.71Z" transform="translate(-412.73 -441.53)" style="fill:#fff;opacity:0.62"/></g><path d="M725.79,589.3c-9.29,438-39.39,1949-25,2484.46,1.52,56.73,40.39,102.25,88.88,104.11,239.82,9.18,1119,32.45,1511.24,13.2,81.7-4,146.67-81.43,148.37-177.07,8.15-459.79,26.14-1753-16.61-2345.39-5.12-71-52.74-127.5-113.33-134.6-261.17-30.56-1144.11-105.27-1483-79.55C775.2,459.1,727.3,517.67,725.79,589.3Z" transform="translate(-412.73 -441.53)" style="fill:url(#linear-gradient-2)"/><path d="M832.79,723.69c-12.91,353.57-53.62,1529.8-40.7,1964.74,1.89,63.58,44.72,115,99,118.7,223.5,15.3,986,49,1313.84,18.33,59-5.53,105.35-61.38,108.54-130.56,16.61-360.71,64.31-1455.94,51.92-1886-2-68.61-47.41-124.64-105.85-130.78-241.79-25.4-1052.06-85.83-1330.63-68.05C876.62,613.4,835,662.48,832.79,723.69Z" transform="translate(-412.73 -441.53)" style="fill:#7d97f4"/><path d="M1432.31,541.35h0c0,13.44,9,24.53,20.42,25.23,56.65,3.47,216.21,13.29,287.53,18.13,14.06,1,25.09-13.83,22.43-30l-.46-2.76c-1.82-11-9.65-19.35-19.21-20.37-48.21-5.17-193.66-19.5-290-15.47C1441.41,516.58,1432.31,527.8,1432.31,541.35Z" transform="translate(-412.73 -441.53)" style="fill:url(#linear-gradient-3)"/><circle cx="1131.04" cy="689.22" r="334.5" style="fill:#9728b2"/><path d="M1646.18,1004.35c0,56.64-45.92,117.79-102.56,117.79s-102.55-61.15-102.55-117.79,45.91-96.82,102.55-96.82S1646.18,947.71,1646.18,1004.35Z" transform="translate(-412.73 -441.53)" style="fill:#fff"/><path d="M1416.35,1340.21h250.36a60.6,60.6,0,0,0,57.71-42.14l13.47-42.1c9.87-30.83-6.17-64.21-36.57-75.33-101.89-37.25-207.24-32.47-315.16,3.44-30.24,10.06-47,42.4-38.67,73.15l10.37,38.24A60.61,60.61,0,0,0,1416.35,1340.21Z" transform="translate(-412.73 -441.53)" style="fill:#fff"/><g style="opacity:0.71"><rect x="545.04" y="1368.04" width="1234.32" height="189.9" rx="6.75" style="fill:#fff;opacity:0.65"/><rect x="538.38" y="1677.87" width="1234.32" height="189.9" rx="6.75" style="fill:#fff;opacity:0.65"/><rect x="738.55" y="1995.2" width="797.38" height="242.1" rx="8.33" style="fill:#fff;opacity:0.65"/></g><rect x="599.72" y="1411.05" width="735.19" height="105.5" rx="12" style="fill:#fff;opacity:0.75"/><g style="opacity:0.75"><circle cx="1037.98" cy="2209.06" r="43.31" transform="translate(-1179.09 123.85) rotate(-22.5)" style="fill:#fff"/><circle cx="744.09" cy="1769.75" r="43.31" style="fill:#fff"/><circle cx="1271.19" cy="2216.83" r="43.31" transform="translate(-1591.12 2503.17) rotate(-76.72)" style="fill:#fff"/><circle cx="977.3" cy="1777.53" r="43.31" style="fill:#fff"/><circle cx="1096.13" cy="1776.41" r="43.31" style="fill:#fff"/><circle cx="1214.96" cy="1778.64" r="43.31" style="fill:#fff"/></g><path d="M2122.28,2361.55,2255,2394.72l-33.17,248.79s49.76,49.76,66.34,116.1S2320,3104.53,2320,3104.53l31.49,19,3.82,15.89-91.59,123.16,15.19-98c2.41-15.56-1.77-47.12-.46-47.78-49.75-132.69-156.19-506.47-156.19-506.47Z" transform="translate(-412.73 -441.53)" style="fill:url(#linear-gradient-4)"/><path d="M2083.51,3141.16c1.44,0,2.85.09,4.29,0-6.41-80-35.71-432-65-564-33.17-149.28,49.76-447.83,49.76-447.83l149.28,149.28-82.93,282c56.83,85.25-9.27,584.48-7.85,584.26l-.09,1.11,21.64,29.75-2.63,16.13-132.19,78,52-84.47A94.77,94.77,0,0,0,2083.51,3141.16Z" transform="translate(-412.73 -441.53)" style="fill:url(#linear-gradient-5)"/><path d="M2251.41,1467.3s290.64,327.56,0,495.52l-29.61-21.44s144.29-138.18,0-307.32Z" transform="translate(-412.73 -441.53)" style="fill:url(#linear-gradient-6)"/><path d="M2009,3282.07h42.19a25.37,25.37,0,0,0,20.15-9.88c13.16-17.09,40.4-50.43,53.43-51.29,17.54-1.18,15.3,61.17,15.3,61.17h9.83l12.45-77.47a45.86,45.86,0,0,0-24.07-47.94h0s-4,29.65-25.75,42.76-88.46,60.08-88.46,60.08a60.39,60.39,0,0,0-17.14.46C1993.66,3262.36,1995.51,3282.07,2009,3282.07Z" transform="translate(-412.73 -441.53)" style="fill:url(#linear-gradient-7)"/><path d="M2260.46,3277.27l38.88-16.36a25.38,25.38,0,0,0,14.75-16.93c5.5-20.85,17.68-62.15,29.35-68,15.72-7.88,37.83,50.46,37.83,50.46l9.06-3.81-18.57-76.25a45.85,45.85,0,0,0-40.77-34.85h0s7.8,28.88-7.15,49.4-58.25,89.69-58.25,89.69a60,60,0,0,0-15.62,7.07C2238.63,3265.06,2248,3282.51,2260.46,3277.27Z" transform="translate(-412.73 -441.53)" style="fill:url(#linear-gradient-8)"/><path d="M2034.51,1876.94s4.88,29.89-2.27,112.08-41.31,275.16-34.35,459.79c0,0,97.11,22.63,265.85,11.91,0,0,71.2-288.26,53.86-397.85s-111.45-188.2-111.45-188.2Z" transform="translate(-412.73 -441.53)" style="fill:#9728b2"/><polygon points="1693.54 886.2 1681.67 1025.77 1794.45 1025.77 1766.4 812.72 1693.54 886.2" style="fill:url(#linear-gradient-9)"/><path d="M2240.58,1448c-38.92-2.15-125.94-6.12-187.59-2.76a71.61,71.61,0,0,0-66.28,56.87l-15,72.06a173.5,173.5,0,0,0,2.45,81.07l60.39,221.7s53.71,32.28,171.64-2.27c0,0,103.56-247,61.17-404.93A29.36,29.36,0,0,0,2240.58,1448Z" transform="translate(-412.73 -441.53)" style="fill:#df1a62"/><path d="M1989.66,1489.19C1973,1533,1958,1578.83,1941.92,1621.8c-8.19,21.51-16.51,42.6-25.4,62-4.5,9.64-9.44,18.5-14,26.54a116.63,116.63,0,0,1-12.31,17.61c-.52.45,1.23.8,1.81.83.35,0-11.23,1.9-14.78,2.49l-13.88-.08c-19.9-1-42.44-4.53-65.05-8.92-45.59-8.51-93-20.44-141.67-29.47l-.38-.07a17.15,17.15,0,0,0-14.46,29.74c19.63,17.28,40.43,31.47,62,45.28,10.86,6.64,21.92,13.15,33.15,19.4,11.46,5.84,22.94,11.73,34.87,17.17,24,10.47,48.84,20.11,77.43,26.3,7.51,1.26,14.93,2.58,22.66,3.62,8.67.3,16.54,1.07,26,.52,5-.5,10.08-1.12,15.12-1.85a68.81,68.81,0,0,0,7.92-1.42q5.19-1.56,10.3-3.48c7.1-2.54,11.69-5.63,17.45-8.84,4.79-3.15,9.16-6.45,13.39-9.84,15.63-13.31,25.34-26.52,33.89-39.21a309.41,309.41,0,0,0,21.36-37.82,515.49,515.49,0,0,0,29.39-74.29c15.63-49.7,26.23-98.54,30.7-150.42a45.17,45.17,0,0,0-87.22-20Z" transform="translate(-412.73 -441.53)" style="fill:url(#linear-gradient-10)"/><path d="M1672,1715.06l-20.13-47.77-105.92-26.39s-8.47,18.36,36,26.39c0,0-15.89,17.56-7.42,38.22S1673,1746.85,1672,1715.06Z" transform="translate(-412.73 -441.53)" style="fill:url(#linear-gradient-11)"/><path d="M2058.52,1166.53c-4,2.37-35.75,114.27-9.17,161.19s107.78-5.63,129.78-73.48S2165.79,1103.27,2058.52,1166.53Z" transform="translate(-412.73 -441.53)" style="fill:url(#linear-gradient-12)"/><path d="M2269,1254.24c18.21,89.23,78.55,64.81,121.29,104.51,69.26,64.33,168.35-2,264.68,59,69.54,44,103,156.62,69.68,247.53-46.23,125.92-204.19,177.71-286,139.36-78.24-36.66-67.1-146.44-172.36-188.86-44.69-18-66.75-6.31-93.51-33-46.86-46.73-34.21-137.42-29.34-172.35,10.57-75.81,36-89.54,23.83-122.86-23.62-64.8-133.83-51.43-143-97.18-8.36-41.66,71.52-120.62,146.69-108.18C2287.16,1101.44,2260.83,1214.49,2269,1254.24Z" transform="translate(-412.73 -441.53)" style="fill:url(#linear-gradient-13)"/><path d="M2689.86,1643.94a3,3,0,0,0,3-2.33c14.89-61.82,8.14-112.52-20.09-150.69-46.84-63.36-137.87-69.63-138.78-69.68a3.09,3.09,0,0,0-3.22,2.86,3,3,0,0,0,2.85,3.22c.89,0,89.16,6.18,134.28,67.25,27.09,36.65,33.49,85.65,19,145.61a3.06,3.06,0,0,0,2.25,3.68A3.43,3.43,0,0,0,2689.86,1643.94Z" transform="translate(-412.73 -441.53)" style="fill:#fff;opacity:0.6000000000000001"/><path d="M2391.71,1700.53a1.74,1.74,0,0,0,.39,0,1.53,1.53,0,0,0,1.09-1.86c-14.51-55.65-40-94.3-75.64-114.88-26-15-50.27-16.37-71.72-17.6-20.67-1.19-38.53-2.22-52.91-15-29.71-26.42-28-90,5.12-188.82a1.52,1.52,0,0,0-2.89-1c-33.53,100.13-35,164.74-4.25,192.05,15.17,13.49,33.51,14.55,54.76,15.77s45,2.59,70.37,17.2c34.95,20.15,59.92,58.18,74.21,113A1.52,1.52,0,0,0,2391.71,1700.53Z" transform="translate(-412.73 -441.53)" style="fill:#fff;opacity:0.72"/><path d="M2225.86,1232.1a1.4,1.4,0,0,0,.49-.08,1.52,1.52,0,0,0,1-1.93c-11.53-34.3-44.75-29.2-79.95-23.79-22.28,3.42-45.31,7-64.85,1.17-14.57-4.32-23.23-11-25.74-19.91-4.27-15.14,10.7-32,10.85-32.19a1.52,1.52,0,0,0-2.26-2c-.67.74-16.24,18.27-11.52,35,2.8,10,12.16,17.37,27.8,22,20.21,6,43.57,2.4,66.18-1.07,35.33-5.43,65.88-10.13,76.6,21.76A1.52,1.52,0,0,0,2225.86,1232.1Z" transform="translate(-412.73 -441.53)" style="fill:#fff;opacity:0.72"/><path d="M2561.54,885.59c0-157,133-284.31,292.64-284.29,154.9,0,277.16,120.59,277.16,269.32s-122.26,275.72-277.16,283.88C2694.55,1162.91,2561.54,1042.61,2561.54,885.59Z" transform="translate(-412.73 -441.53)" style="fill:#ba145c"/><path d="M2588.24,884.89c0-142.32,120.55-257.67,265.21-257.65,140.39,0,251.19,109.29,251.19,244.08s-110.8,249.88-251.19,257.28C2708.79,1136.22,2588.24,1027.2,2588.24,884.89Z" transform="translate(-412.73 -441.53)" style="fill:#df1a62"/><path d="M2767.53,868.75h-23.77V774a73.74,73.74,0,0,1,64.78-73.13l48.6-5.91a73.67,73.67,0,0,1,82.55,73.13v82.69h-23.77V768.12A49.89,49.89,0,0,0,2860,718.59l-48.59,5.9A50,50,0,0,0,2767.53,774Z" transform="translate(-412.73 -441.53)" style="fill:#ba145c"/><path d="M2736.73,847.48l208.35-11.54a14.76,14.76,0,0,1,15.58,14.74v165.06a14.76,14.76,0,0,1-14.76,14.76H2742.56a14.76,14.76,0,0,1-14.76-14.28l-5-153.52A14.77,14.77,0,0,1,2736.73,847.48Z" transform="translate(-412.73 -441.53)" style="fill:#ba145c"/><path d="M2875.69,983.22,2863.08,947a12.12,12.12,0,0,1,2.76-12.51,34.33,34.33,0,1,0-46.05,2.56,12.24,12.24,0,0,1,4,13.52l-11.37,32.69A12.24,12.24,0,0,0,2824,999.47h40.19A12.23,12.23,0,0,0,2875.69,983.22Z" transform="translate(-412.73 -441.53)" style="fill:#df1a62"/><g style="opacity:0.30000000000000004"><path d="M1120.51,2976.66a12,12,0,0,1-4,15.1c-10.65,7.08-21.75,13.78-33,19.91a10.92,10.92,0,0,1-15.07-5l-.09-.2a12,12,0,0,1,4.83-15.61c10.68-5.83,21.22-12.19,31.34-18.92a10.86,10.86,0,0,1,15.41,3.65A9.37,9.37,0,0,1,1120.51,2976.66Zm-87.42,44.64a13.17,13.17,0,0,1,.52,1.28,11.87,11.87,0,0,1-6.75,15c-11.92,4.46-24.15,8.43-36.34,11.79-6,1.64-12-2.08-13.66-8.37a11.77,11.77,0,0,1,7.93-14.32c11.59-3.2,23.2-7,34.54-11.2A11,11,0,0,1,1033.09,3021.3Zm-94.65,23.28a12.1,12.1,0,0,1,1.08,3.83c.74,6.44-3.63,12.27-9.75,13-12.56,1.56-25.33,2.56-38,3A11.75,11.75,0,0,1,891,3041c12-.39,24.14-1.34,36.06-2.81A11.1,11.1,0,0,1,938.44,3044.58Zm-97.31.46a12.21,12.21,0,0,1,1.1,6.46A11.29,11.29,0,0,1,830,3061.9c-12.59-1.44-25.26-3.47-37.68-6-6-1.25-10-7.41-8.84-13.77a11.19,11.19,0,0,1,13.09-9.25c11.79,2.43,23.83,4.36,35.79,5.72A11.22,11.22,0,0,1,841.13,3045Zm-95-22.34a12.17,12.17,0,0,1,.57,9,11,11,0,0,1-14.18,7.27c-11.94-4.32-23.88-9.24-35.47-14.62a12,12,0,0,1-5.73-15.48,11,11,0,0,1,14.72-6c11,5.12,22.36,9.8,33.71,13.9A11.38,11.38,0,0,1,746.12,3022.7Zm-88-43.85a12.23,12.23,0,0,1-.49,11.4,10.86,10.86,0,0,1-15.37,3.79c-10.76-7-21.37-14.57-31.53-22.5a12.15,12.15,0,0,1-2.32-16.42,10.81,10.81,0,0,1,15.62-2.4c9.66,7.54,19.73,14.73,30,21.38A11.52,11.52,0,0,1,658.14,2978.85ZM452,2606a12.37,12.37,0,0,1,1.15,4.81c.43,12.6,1.38,25.35,2.84,37.89.74,6.43-3.61,12.27-9.73,13a11.32,11.32,0,0,1-12.44-10.25c-1.54-13.21-2.54-26.64-3-39.9a11.46,11.46,0,0,1,10.77-12.11A11.15,11.15,0,0,1,452,2606ZM581.6,2915.68a12.18,12.18,0,0,1-2,13.45,10.79,10.79,0,0,1-15.79.1c-9-9.33-17.76-19.18-26-29.29A12.16,12.16,0,0,1,539,2883.4a10.81,10.81,0,0,1,15.75,1.32c7.81,9.6,16.11,19,24.67,27.82A12,12,0,0,1,581.6,2915.68ZM466.35,2707.07a12.35,12.35,0,0,1,.8,2.21c3.1,12.19,6.74,24.4,10.82,36.3a11.88,11.88,0,0,1-6.72,15,11,11,0,0,1-14.29-7.1c-4.3-12.51-8.13-25.37-11.39-38.19-1.59-6.27,1.95-12.69,7.9-14.34A11,11,0,0,1,466.35,2707.07Zm54,129.1a12.06,12.06,0,0,1-4,15.1,10.88,10.88,0,0,1-15.43-3.62c-6.79-11.2-13.22-22.85-19.09-34.64a2.4,2.4,0,0,1-.11-.23,12,12,0,0,1,4.81-15.59,10.92,10.92,0,0,1,15.08,5c5.58,11.2,11.69,22.27,18.14,32.91A10.52,10.52,0,0,1,520.37,2836.17Z" transform="translate(-412.73 -441.53)" style="fill:#df1a62"/><path d="M456.31,2523.74a12.23,12.23,0,0,1,1.05,6.92c-.84,6-1.57,12.08-2.18,18.13a11.3,11.3,0,0,1-12.28,10.41,11.63,11.63,0,0,1-9.93-12.93c.63-6.36,1.4-12.77,2.28-19.07a11,11,0,0,1,21.06-3.46Z" transform="translate(-412.73 -441.53)" style="fill:#df1a62"/></g><g style="opacity:0.30000000000000004"><path d="M633.41,2218.74a12.08,12.08,0,0,1-3.51,14.75c-4.68,3.5-9.37,7.17-13.94,10.9a10.83,10.83,0,0,1-15.68-2.09,12.1,12.1,0,0,1,2-16.45c4.81-3.93,9.75-7.79,14.68-11.48a11.11,11.11,0,0,1,16.5,4.37Z" transform="translate(-412.73 -441.53)" style="fill:#df1a62"/><path d="M1275.89,2387.81q3.43,7.24,6.66,14.69A11.94,11.94,0,0,1,1277,2418a11,11,0,0,1-14.8-5.83c-5-11.43-10.35-22.63-16.09-33.41a12,12,0,0,1,4.28-16,10.9,10.9,0,0,1,15.2,4.53C1269.16,2374,1272.62,2380.91,1275.89,2387.81Zm27.42,72.7a12.51,12.51,0,0,1,.7,1.86c3.59,12.54,6.72,25.38,9.29,38.16a11.71,11.71,0,0,1-8.61,13.89,11.23,11.23,0,0,1-13.24-9.09c-2.44-12.13-5.42-24.33-8.83-36.25a11.81,11.81,0,0,1,7.47-14.59A11,11,0,0,1,1303.31,2460.51Zm-69.92-144.85a12.1,12.1,0,0,1-3.26,14.56,10.84,10.84,0,0,1-15.65-2.32c-7.12-9.9-14.74-19.61-22.66-28.87a12.16,12.16,0,0,1,.83-16.57,10.81,10.81,0,0,1,15.78.92c8.33,9.75,16.36,20,23.86,30.41A12.21,12.21,0,0,1,1233.39,2315.66Zm87.27,243.82a12.27,12.27,0,0,1,1.14,4.39c.88,13.05,1.24,26.29,1.08,39.36a11.42,11.42,0,0,1-11.32,11.54c-6.17-.1-11.1-5.43-11-11.92.16-12.4-.18-25-1-37.37a11.5,11.5,0,0,1,10.34-12.5A11.13,11.13,0,0,1,1320.66,2559.48Zm-153.12-316.91a12.19,12.19,0,0,1-1.46,12.79,10.8,10.8,0,0,1-15.74,1.36c-9-8-18.48-15.73-28.13-22.95a12.12,12.12,0,0,1-2.65-16.36,10.82,10.82,0,0,1,15.57-2.74c10.16,7.59,20.13,15.72,29.62,24.16A11.49,11.49,0,0,1,1167.54,2242.57Zm-79.48-56.19A12.3,12.3,0,0,1,1088,2197a10.9,10.9,0,0,1-15.07,4.94c-10.49-5.77-21.33-11.14-32.23-16a12,12,0,0,1-6-15.37,11,11,0,0,1,14.62-6.24c11.46,5.08,22.87,10.73,33.91,16.8A11.56,11.56,0,0,1,1088.06,2186.38Zm-89.22-36.67a12.22,12.22,0,0,1,.79,8.25,11.1,11.1,0,0,1-13.68,8.27c-11.44-3.24-23.12-6-34.75-8.23a11.72,11.72,0,0,1-9-13.65,11.18,11.18,0,0,1,13-9.43c12.23,2.33,24.54,5.25,36.57,8.66A11.31,11.31,0,0,1,998.84,2149.71Zm-94.66-15.39a12.17,12.17,0,0,1,1.16,5.7,11.37,11.37,0,0,1-11.62,11.21c-11.82-.54-23.79-.55-35.59,0-6.16.27-11.38-4.77-11.65-11.23s4.51-11.94,10.67-12.2c12.43-.55,25-.53,37.48,0A11.2,11.2,0,0,1,904.18,2134.32Zm-95.55,6.81a12.23,12.23,0,0,1,1,3.12c1.11,6.37-2.91,12.48-9,13.63-11.61,2.21-23.28,5-34.7,8.2a11.16,11.16,0,0,1-13.71-8.27,11.79,11.79,0,0,1,7.85-14.38c12-3.41,24.3-6.31,36.52-8.63A11.05,11.05,0,0,1,808.63,2141.13ZM717,2169.8c.1.22.2.44.29.66a11.93,11.93,0,0,1-5.92,15.37c-8,3.54-16,7.39-23.8,11.44q-4.23,2.2-8.39,4.49a10.93,10.93,0,0,1-15.08-5,11.87,11.87,0,0,1,4.69-15.82q4.38-2.4,8.82-4.72c8.18-4.25,16.61-8.3,25-12A11,11,0,0,1,717,2169.8Z" transform="translate(-412.73 -441.53)" style="fill:#df1a62"/><path d="M1316.8,2660.25a12.19,12.19,0,0,1,1,7c-.91,6.28-2,12.66-3.13,18.95a11.16,11.16,0,0,1-13.09,9.24,11.73,11.73,0,0,1-8.83-13.77c1.1-6,2.1-12,3-18a11,11,0,0,1,21-3.41Z" transform="translate(-412.73 -441.53)" style="fill:#df1a62"/></g><path d="M1194.11,2706.4a5.68,5.68,0,0,0-1.17-6.25l-46.2-45.92a305.09,305.09,0,0,0,2.88-94.11l48.85-42.48a5.65,5.65,0,0,0,1.55-6.15l-26.91-74.95a5.24,5.24,0,0,0-5-3.56l-63.47,1.76a286.33,286.33,0,0,0-61.37-68.8l5.87-66.43a5.55,5.55,0,0,0-3-5.51l-69.44-33.14a5,5,0,0,0-6,1.22l-43.61,48.41a263.81,263.81,0,0,0-89.62-3.25l-40.55-51.41a5.08,5.08,0,0,0-5.86-1.64l-71.3,28.08a5.46,5.46,0,0,0-3.37,5.28l1.82,66.66a281.81,281.81,0,0,0-65.36,64.3l-63.26-6.32a5.18,5.18,0,0,0-5.24,3.19l-31.39,72.85a5.69,5.69,0,0,0,1.18,6.25l46.2,45.92a304.84,304.84,0,0,0-2.89,94.12L548.57,2677a5.67,5.67,0,0,0-1.55,6.15l26.91,75a5.26,5.26,0,0,0,5,3.56l63.46-1.76a286.37,286.37,0,0,0,61.38,68.8l-5.87,66.43a5.54,5.54,0,0,0,3,5.51l69.44,33.14a5,5,0,0,0,5.94-1.22L820,2884.14a263.57,263.57,0,0,0,89.62,3.25l40.56,51.41a5.07,5.07,0,0,0,5.86,1.64l71.29-28.08a5.47,5.47,0,0,0,3.38-5.28l-1.83-66.66a281.85,281.85,0,0,0,65.37-64.3l63.26,6.32a5.16,5.16,0,0,0,5.23-3.19Z" transform="translate(-412.73 -441.53)" style="fill:#df1a62"/><path d="M942.13,2561.68c16.63,35.15,6.7,78.79-24.84,101.77-34.67,25.26-82.5,16.14-106.63-20.33a83.18,83.18,0,0,1-12.54-60.18,80.12,80.12,0,0,1,31.64-51.76c34.66-25.26,82.49-16.14,106.63,20.33A82.58,82.58,0,0,1,942.13,2561.68Zm-121.25,62.88a63.21,63.21,0,0,0,4.44,7.88c18.5,28,55.18,34.95,81.76,15.59s33.16-57.88,14.64-85.84-55.18-35-81.75-15.59a61.48,61.48,0,0,0-24.26,39.69A64.05,64.05,0,0,0,820.88,2624.56Z" transform="translate(-412.73 -441.53)" style="fill:#ba145c;opacity:0.7000000000000001"/><path d="M1040.47,2508.68q4.29,9.06,7.74,18.65h0q1.1,3,2.08,6.08a207.07,207.07,0,0,1,7.44,30.72c0,.14,0,.28.07.42.06.4.13.8.19,1.21.12.78.23,1.57.34,2.35a4.73,4.73,0,0,1-2.42,4.89,4.62,4.62,0,0,1-1.33.44,4.53,4.53,0,0,1-5.08-4,197.84,197.84,0,0,0-9.65-38.85c-22.44-62.54-73.29-105.32-131.33-118.24a170.24,170.24,0,0,0-99.88,7.89,178.4,178.4,0,0,0-16.92,7.71c-36.85,19.18-66,50.84-83.21,90.72a195.84,195.84,0,0,0-4.37,144.14c35,97.34,138.65,146.8,231.21,110.35a174.56,174.56,0,0,0,16.7-7.62,180.15,180.15,0,0,0,60.51-51.34,4.59,4.59,0,0,1,1.51-1.28,4.29,4.29,0,0,1,4.77.54,4.85,4.85,0,0,1,.72,6.59A189.06,189.06,0,0,1,956,2774a183.57,183.57,0,0,1-17.54,8c-97.17,38.27-206.06-13.73-242.72-115.84a205.53,205.53,0,0,1,4.59-151.32c18-41.87,48.67-75.11,87.35-95.24a187.66,187.66,0,0,1,17.77-8.1c47.07-18.54,98.24-16.7,144.08,5.18C989.49,2435.72,1021.21,2468,1040.47,2508.68Z" transform="translate(-412.73 -441.53)" style="fill:#ba145c;opacity:0.7000000000000001"/><g style="opacity:0.30000000000000004"><path d="M1553.83,3198.36a7.5,7.5,0,0,1-1.49,8.54c-4.3,4.17-8.77,8.26-13.3,12.16a6.68,6.68,0,0,1-9.71-1,7.49,7.49,0,0,1,1-10.2c4.32-3.71,8.58-7.6,12.68-11.58a6.67,6.67,0,0,1,9.75.41A7.46,7.46,0,0,1,1553.83,3198.36Z" transform="translate(-412.73 -441.53)" style="fill:#df1a62"/><path d="M1511.76,3232.23a7.45,7.45,0,0,1-2.49,9.34,296.71,296.71,0,0,1-26.45,15.56q-2.85,1.48-5.75,2.91c-3.45,1.7-7.52-.12-9.18-3.48a7.39,7.39,0,0,1,3.29-9.63q2.77-1.36,5.49-2.78a282.92,282.92,0,0,0,25.23-14.85,6.71,6.71,0,0,1,9.51,2.28A5.84,5.84,0,0,1,1511.76,3232.23ZM1447,3264.15a9.31,9.31,0,0,1,.38,1,7.32,7.32,0,0,1-4.39,9.14,286.7,286.7,0,0,1-35.51,9.73,7,7,0,0,1-8.1-5.71,7.23,7.23,0,0,1,5.42-8.51,273.45,273.45,0,0,0,33.87-9.28A6.78,6.78,0,0,1,1447,3264.15Zm-70.26,14.45a7.64,7.64,0,0,1,.71,2.72A7.11,7.11,0,0,1,1371,3289a283.28,283.28,0,0,1-36.74.27,7.14,7.14,0,0,1-6.53-7.64,7,7,0,0,1,7.25-6.83,271.32,271.32,0,0,0,35-.25A6.86,6.86,0,0,1,1376.72,3278.6Zm-71.53-4.13a7.57,7.57,0,0,1,.62,4.49,6.91,6.91,0,0,1-8,5.84,287,287,0,0,1-35.69-9.18,7.34,7.34,0,0,1-4.55-9.07,6.82,6.82,0,0,1,8.63-4.76,273.52,273.52,0,0,0,34,8.75A7,7,0,0,1,1305.19,3274.47Zm-68.44-22.36a7.56,7.56,0,0,1,.12,6.2,6.77,6.77,0,0,1-9.12,3.62,298.57,298.57,0,0,1-32.5-18,7.45,7.45,0,0,1-2.33-10,6.7,6.7,0,0,1,9.47-2.42,284.13,284.13,0,0,0,31,17.17A7,7,0,0,1,1236.75,3252.11ZM1175.52,3213a7.53,7.53,0,0,1-.76,7.71,6.67,6.67,0,0,1-9.68,1.18,302.44,302.44,0,0,1-27.36-25.76,7.52,7.52,0,0,1,.06-10.25,6.67,6.67,0,0,1,9.76.09,287.92,287.92,0,0,0,26.08,24.56A7.19,7.19,0,0,1,1175.52,3213Zm-50.29-53.61a7.48,7.48,0,0,1-2,9,6.69,6.69,0,0,1-9.68-1.36,317.08,317.08,0,0,1-20.53-32,7.47,7.47,0,0,1,2.46-9.91,6.73,6.73,0,0,1,9.44,2.59,301,301,0,0,0,19.57,30.55A7.28,7.28,0,0,1,1125.23,3159.39ZM1076.72,3059a7.81,7.81,0,0,1,.45,1.2,313,313,0,0,0,10.15,30.19c.59,1.5,1.18,3,1.78,4.42a7.36,7.36,0,0,1-3.58,9.52,6.71,6.71,0,0,1-9.07-3.77q-1-2.34-1.89-4.69a326,326,0,0,1-10.62-31.62,7.28,7.28,0,0,1,4.67-9A6.79,6.79,0,0,1,1076.72,3059Z" transform="translate(-412.73 -441.53)" style="fill:#df1a62"/></g><g style="opacity:0.30000000000000004"><path d="M1614.7,2834.22a7.42,7.42,0,0,1-3,9.67,6.75,6.75,0,0,1-9.29-3.16,303.63,303.63,0,0,0-17.57-31.16,7.51,7.51,0,0,1,1.84-10.06,6.7,6.7,0,0,1,9.58,2,316.47,316.47,0,0,1,18.42,32.67Zm14.22,34c.11.24.21.48.3.73a332.18,332.18,0,0,1,10.5,36.32,7.25,7.25,0,0,1-5.11,8.72,6.91,6.91,0,0,1-8.31-5.38,316.44,316.44,0,0,0-10-34.66,7.34,7.34,0,0,1,4.07-9.3A6.78,6.78,0,0,1,1628.92,2868.18Zm-53.76-95.27a7.5,7.5,0,0,1-1.64,8.67,6.67,6.67,0,0,1-9.73-.7,293.1,293.1,0,0,0-24.22-25.8,7.51,7.51,0,0,1-.53-10.23,6.66,6.66,0,0,1,9.74-.54,306.94,306.94,0,0,1,25.39,27.05A7.27,7.27,0,0,1,1575.16,2772.91Zm70.11,167.32a7.63,7.63,0,0,1,.68,2.41,329.07,329.07,0,0,1,1.84,37.92,7,7,0,0,1-7,7.15,7.12,7.12,0,0,1-6.83-7.33,311.75,311.75,0,0,0-1.75-36.15,7.14,7.14,0,0,1,6.08-8A6.84,6.84,0,0,1,1645.27,2940.23ZM1522.7,2723.42a7.56,7.56,0,0,1-.51,7.38,6.7,6.7,0,0,1-9.61,1.78,282.05,282.05,0,0,0-29.39-18.94,7.44,7.44,0,0,1-2.86-9.81,6.73,6.73,0,0,1,9.33-3,299.21,299.21,0,0,1,30.82,19.86A7.16,7.16,0,0,1,1522.7,2723.42Zm-62.2-34.85a7.53,7.53,0,0,1,.26,5.83,6.79,6.79,0,0,1-8.91,4.14,280.33,280.33,0,0,0-32.85-11,7.29,7.29,0,0,1-5-8.81,6.87,6.87,0,0,1,8.37-5.23A291.2,291.2,0,0,1,1456.8,2685,7,7,0,0,1,1460.5,2688.57Zm-68.33-18.23a7.56,7.56,0,0,1,.66,4.13,7,7,0,0,1-7.71,6.27,267.85,267.85,0,0,0-34.38-2.43,7.25,7.25,0,0,1,0-14.49,283.35,283.35,0,0,1,36.07,2.54A6.92,6.92,0,0,1,1392.17,2670.34Z" transform="translate(-412.73 -441.53)" style="fill:#df1a62"/><path d="M1644.52,3014.57a7.45,7.45,0,0,1,.66,4.18c-.78,6.15-1.74,12.3-2.85,18.28a6.91,6.91,0,0,1-8.09,5.71,7.28,7.28,0,0,1-5.45-8.51c1.06-5.71,2-11.57,2.72-17.43a6.81,6.81,0,0,1,13-2.23Z" transform="translate(-412.73 -441.53)" style="fill:#df1a62"/></g><path d="M1562.19,3050.67a3.8,3.8,0,0,0-.78-4.18l-30.92-30.72a203.8,203.8,0,0,0,1.93-63l32.69-28.42a3.8,3.8,0,0,0,1-4.12l-18-50.15a3.51,3.51,0,0,0-3.37-2.38l-42.47,1.18a191.67,191.67,0,0,0-41.06-46.05l3.92-44.45a3.69,3.69,0,0,0-2-3.68l-46.47-22.18a3.35,3.35,0,0,0-4,.82l-29.19,32.39a176.61,176.61,0,0,0-60-2.18l-27.14-34.4a3.4,3.4,0,0,0-3.92-1.09l-47.71,18.79a3.66,3.66,0,0,0-2.26,3.53l1.22,44.61a188.67,188.67,0,0,0-43.74,43l-42.33-4.23a3.46,3.46,0,0,0-3.5,2.13l-21,48.76a3.82,3.82,0,0,0,.79,4.18l30.92,30.72a203.8,203.8,0,0,0-1.93,63L1130.23,3031a3.76,3.76,0,0,0-1,4.11l18,50.15a3.49,3.49,0,0,0,3.37,2.38l42.46-1.17a192.06,192.06,0,0,0,41.07,46l-3.92,44.45a3.69,3.69,0,0,0,2,3.68l46.46,22.18a3.37,3.37,0,0,0,4-.81l29.18-32.4a176.67,176.67,0,0,0,60,2.18l27.14,34.4a3.4,3.4,0,0,0,3.92,1.09l47.71-18.79a3.67,3.67,0,0,0,2.26-3.53l-1.23-44.61a188.28,188.28,0,0,0,43.74-43l42.33,4.23a3.46,3.46,0,0,0,3.51-2.13Z" transform="translate(-412.73 -441.53)" style="fill:#df1a62"/><path d="M1394.44,2953.48a56.92,56.92,0,0,1,4.59,34,54.57,54.57,0,0,1-21.55,35.26c-23.61,17.21-56.19,11-72.63-13.84s-10.6-59.06,13-76.26a49.76,49.76,0,0,1,39-8.87,51.79,51.79,0,0,1,33.62,22.72A56.23,56.23,0,0,1,1394.44,2953.48Zm-81.14,42.06a40.2,40.2,0,0,0,2.87,5.1c12.09,18.27,36.06,22.84,53.43,10.18a40.18,40.18,0,0,0,15.85-25.93,41.75,41.75,0,0,0-6.28-30.16h0a38.13,38.13,0,0,0-24.73-16.71,36.61,36.61,0,0,0-28.7,6.52C1309.94,2956.05,1305,2977.92,1313.3,2995.54Z" transform="translate(-412.73 -441.53)" style="fill:#ba145c;opacity:0.7000000000000001"/><path d="M1462.94,2916.68q2.91,6.17,5.28,12.73a142.93,142.93,0,0,1,6.8,26.9l.18,1.23a7.34,7.34,0,0,1-3.74,7.55,6.56,6.56,0,0,1-2.06.67,7,7,0,0,1-7.84-6.11,127.29,127.29,0,0,0-6.25-25.15h0c-.16-.45-.32-.89-.49-1.33a121.19,121.19,0,0,0-33-48.75,116.59,116.59,0,0,0-26.38-17.7l-.23-.12-.72-.34a110.36,110.36,0,0,0-88.85-3.2,116.66,116.66,0,0,0-11,5c-23.86,12.42-42.74,32.91-53.87,58.74a126.76,126.76,0,0,0-2.83,93.3c11,30.49,32.56,54.75,60.83,68.25a110.36,110.36,0,0,0,88.85,3.19,112,112,0,0,0,10.81-4.93,116.61,116.61,0,0,0,39.17-33.23,6.87,6.87,0,0,1,2.34-2,6.61,6.61,0,0,1,7.35.82,7.49,7.49,0,0,1,1.12,10.18,130.55,130.55,0,0,1-43.82,37.2,128.13,128.13,0,0,1-12.1,5.51,123.48,123.48,0,0,1-99.41-3.57c-31.62-15.1-55.81-42.18-68-76.35a141.78,141.78,0,0,1,3.16-104.39c12.44-28.89,33.58-51.82,60.27-65.71a130.47,130.47,0,0,1,12.25-5.59C1363.63,2824.73,1433.61,2854.73,1462.94,2916.68Z" transform="translate(-412.73 -441.53)" style="fill:#ba145c;opacity:0.7000000000000001"/></g></svg>